HIERARCHY
ROOT Pelvis
{
	OFFSET 0.000000 0.000000 0.000000
	CHANNELS 6 Xposition Yposition Zposition Xrotation Yrotation Zrotation
	JOINT LeftUpLeg_virtual
	{
		OFFSET 0.000000 0.000000 0.000000
		CHANNELS 3 Xrotation Yrotation Zrotation
		JOINT LeftUpLeg
		{
			OFFSET 18.735201 -5.666702 -4.541200
			CHANNELS 3 Xrotation Yrotation Zrotation
			JOINT LeftLeg
			{
				OFFSET -0.021200 -31.938179 0.493100
				CHANNELS 3 Xrotation Yrotation Zrotation
				JOINT LeftFoot
				{
					OFFSET 0.021200 -31.938179 -4.336299
					CHANNELS 3 Xrotation Yrotation Zrotation
					JOINT LeftToeBase
					{
						OFFSET 0.943001 -26.722000 15.023500
						CHANNELS 3 Xrotation Yrotation Zrotation
						End Site
						{
							OFFSET 0 0 0
						}
					}
				}
			}
		}
	}
	JOINT RightUpLeg_virtual
	{
		OFFSET 0.000000 0.000000 0.000000
		CHANNELS 3 Xrotation Yrotation Zrotation
		JOINT RightUpLeg
		{
			OFFSET -18.735201 -5.666702 -4.541200
			CHANNELS 3 Xrotation Yrotation Zrotation
			JOINT RightLeg
			{
				OFFSET 0.018946 -31.938133 0.493100
				CHANNELS 3 Xrotation Yrotation Zrotation
				JOINT RightFoot
				{
					OFFSET -0.018946 -31.938126 -4.336299
					CHANNELS 3 Xrotation Yrotation Zrotation
					JOINT RightToeBase
					{
						OFFSET -0.943001 -26.722004 15.023500
						CHANNELS 3 Xrotation Yrotation Zrotation
						End Site
						{
							OFFSET 0 0 0
						}
					}
				}
			}
		}
	}
	JOINT Hips_virtual
	{
		OFFSET 0.000000 0.000000 0.000000
		CHANNELS 3 Xrotation Yrotation Zrotation
		JOINT Hips
		{
			OFFSET -0.000000 -0.000000 -0.000000
			CHANNELS 3 Xrotation Yrotation Zrotation
			JOINT Spine
			{
				OFFSET 0.000000 10.199997 -0.299500
				CHANNELS 3 Xrotation Yrotation Zrotation
				JOINT Spine1
				{
					OFFSET 0.000000 11.900002 -1.516600
					CHANNELS 3 Xrotation Yrotation Zrotation
					JOINT Spine2
					{
						OFFSET 0.000000 13.600006 -2.842500
						CHANNELS 3 Xrotation Yrotation Zrotation
						JOINT Neck_virtual
						{
							OFFSET 0.000000 0.000000 0.000000
							CHANNELS 3 Xrotation Yrotation Zrotation
							JOINT Neck
							{
								OFFSET 0.000000 9.624100 -2.890100
								CHANNELS 3 Xrotation Yrotation Zrotation
								JOINT Head
								{
									OFFSET 0.000000 14.068802 -1.351900
									CHANNELS 3 Xrotation Yrotation Zrotation
									End Site
									{
										OFFSET 0 0 0
									}
								}
							}
						}
						JOINT LeftShoulder_virtual
						{
							OFFSET 0.000000 0.000000 0.000000
							CHANNELS 3 Xrotation Yrotation Zrotation
							JOINT LeftShoulder
							{
								OFFSET 15.263000 10.923401 -0.547700
								CHANNELS 3 Xrotation Yrotation Zrotation
								JOINT LeftArm
								{
									OFFSET 25.438599 -2.830597 -13.032500
									CHANNELS 3 Xrotation Yrotation Zrotation
									JOINT LeftForeArm
									{
										OFFSET 29.960503 0.000000 0.000000
										CHANNELS 3 Xrotation Yrotation Zrotation
										JOINT LeftHand
										{
											OFFSET 27.849251 0.000000 0.000000
											CHANNELS 3 Xrotation Yrotation Zrotation
											End Site
											{
												OFFSET 0 0 0
											}
										}
									}
								}
							}
						}
						JOINT RightShoulder_virtual
						{
							OFFSET 0.000000 0.000000 0.000000
							CHANNELS 3 Xrotation Yrotation Zrotation
							JOINT RightShoulder
							{
								OFFSET -15.263000 10.923401 -0.547700
								CHANNELS 3 Xrotation Yrotation Zrotation
								JOINT RightArm
								{
									OFFSET -25.438599 -2.830597 -13.032500
									CHANNELS 3 Xrotation Yrotation Zrotation
									JOINT RightForeArm
									{
										OFFSET -29.960503 0.000000 0.000000
										CHANNELS 3 Xrotation Yrotation Zrotation
										JOINT RightHand
										{
											OFFSET -27.849251 0.000000 0.000000
											CHANNELS 3 Xrotation Yrotation Zrotation
											End Site
											{
												OFFSET 0 0 0
											}
										}
									}
								}
							}
						}
					}
				}
			}
		}
	}
}
MOTION
Frames: 10
Frame Time: 0.03333333
-1.565129 94.642799 4.243206 0.000000 0.000000 0.000000 10.535569 1.972306 -5.536432 -27.774454 13.831236 11.317450 30.277979 1.657075 0.912012 -16.864844 1.354122 -2.662254 0.000000 0.000000 0.000000 6.958390 -2.224982 1.325161 -20.511000 -5.982342 -13.438968 31.563694 -6.594586 -0.061193 -16.482010 -10.556865 6.821966 0.000000 0.000000 0.000000 -0.089952 -6.986108 0.386368 -4.299000 -12.019821 -0.285085 5.838206 -2.054856 -0.771460 1.823360 -0.490238 -0.846119 0.000000 0.000000 0.000000 2.020024 2.289485 -1.660824 -1.009282 0.974448 -0.630951 0.000000 0.000000 0.000000 0.975835 1.778268 -1.853073 0.033549 -3.106188 -10.835567 3.918506 5.795929 -60.050436 1.652237 -24.381342 -7.256546 0.000000 0.000000 0.000000 -0.271080 1.490242 -0.928968 -1.888655 10.986027 3.115519 -0.309631 -0.608353 54.845282 0.585523 34.326748 7.820863 0.000000 0.000000 0.000000 
0.702904 94.645950 4.860662 0.000000 0.000000 0.000000 10.418568 1.368292 -5.738593 -27.994094 13.762227 11.071688 28.619524 1.464483 1.159633 -18.158203 1.089335 -2.450405 0.000000 0.000000 0.000000 6.489842 -2.268688 1.251081 -21.142951 -5.913682 -13.498134 31.477951 -6.980308 0.219312 -16.596562 -11.086540 6.985535 0.000000 0.000000 0.000000 -1.651553 -5.639340 -0.309581 -1.820784 -8.537871 2.281069 6.695272 -2.429512 -1.040504 2.422133 -0.427191 -0.700983 0.000000 0.000000 0.000000 2.035678 2.543205 -1.972478 -1.010615 1.143844 -0.672205 0.000000 0.000000 0.000000 0.517918 1.727665 -1.884121 0.595331 -3.133980 -10.937415 5.203647 7.233904 -61.253874 2.543594 -22.543473 -7.226973 0.000000 0.000000 0.000000 -0.579726 1.805610 -1.287876 -1.593024 11.581826 2.846352 1.244257 -0.040160 56.659916 0.224573 35.442951 9.238368 0.000000 0.000000 0.000000 
1.527743 94.468109 6.341724 0.000000 0.000000 0.000000 10.038275 0.103170 -5.876836 -28.127733 13.440065 10.615955 28.074343 1.507287 1.269953 -18.617446 1.114495 -2.306477 0.000000 0.000000 0.000000 6.556567 -2.140089 0.797899 -20.834468 -5.768377 -13.904773 33.023623 -7.085575 0.583654 -15.015319 -11.316943 7.424645 0.000000 0.000000 0.000000 -0.892486 -5.232748 0.517480 -5.693818 -8.819355 1.169260 6.820679 -3.241066 -1.073979 1.528997 -0.753332 -0.287321 0.000000 0.000000 0.000000 2.045593 2.532392 -1.889804 -1.145586 1.078081 -0.696573 0.000000 0.000000 0.000000 0.051402 1.901637 -1.691861 0.263060 -4.935226 -11.104073 4.115178 7.190808 -62.970000 2.415065 -21.733498 -7.895224 0.000000 0.000000 0.000000 -0.792303 1.885589 -1.494659 -1.183129 11.135690 2.324289 3.026663 1.514876 58.192870 0.872513 33.315187 9.148571 0.000000 0.000000 0.000000 
1.188148 94.636917 4.710596 0.000000 0.000000 0.000000 8.946258 -0.765150 -6.367075 -29.233312 13.180897 9.948001 28.832940 1.146329 1.391520 -18.185266 0.677930 -2.376816 0.000000 0.000000 0.000000 6.466703 -0.648319 0.877495 -20.855740 -5.360062 -13.612605 34.355531 -7.419306 0.968985 -13.857053 -11.787779 7.793028 0.000000 0.000000 0.000000 -1.336729 -5.426500 0.130843 -2.243249 -10.822937 2.028396 6.331410 -4.254196 -0.227780 2.083527 -0.836998 -0.473770 0.000000 0.000000 0.000000 1.462468 2.307108 -1.808208 -1.378316 0.974745 -0.674675 0.000000 0.000000 0.000000 0.812494 1.700875 -1.609507 0.640082 -4.638013 -9.535946 6.341777 5.994701 -62.873380 3.241847 -21.578531 -7.614865 0.000000 0.000000 0.000000 -0.828612 1.907370 -1.677802 -1.580484 10.443752 3.095139 3.553821 -1.042337 59.033619 0.958191 32.020005 9.667842 0.000000 0.000000 0.000000 
0.965511 94.013245 3.262476 0.000000 0.000000 0.000000 9.132546 0.035427 -6.187096 -28.804410 13.305366 10.133725 28.978071 1.498348 1.707735 -18.041263 0.858745 -1.704204 0.000000 0.000000 0.000000 7.215765 0.505093 0.542638 -19.745529 -5.133328 -13.790842 34.707237 -6.912700 1.444371 -13.567983 -11.485874 8.912436 0.000000 0.000000 0.000000 0.593606 -3.297541 0.258799 -2.403327 -8.485261 3.574851 6.031710 -3.926431 -0.695688 1.158689 -0.888995 -0.248840 0.000000 0.000000 0.000000 1.276115 2.397678 -1.580270 -1.675769 1.072664 -0.549005 0.000000 0.000000 0.000000 -0.212081 1.567208 -1.548693 -0.086518 -4.703824 -9.903783 7.236492 5.640682 -61.964685 3.513213 -21.497436 -7.425291 0.000000 0.000000 0.000000 -1.046845 1.833125 -1.637001 -1.133096 10.582664 2.535746 3.875880 -0.277492 58.740125 1.024744 34.443428 9.640123 0.000000 0.000000 0.000000 
0.555504 94.150513 4.629686 0.000000 0.000000 0.000000 9.290938 2.087703 -6.844006 -29.007947 14.027749 9.863795 30.004249 1.602920 1.751138 -17.280223 0.911693 -1.599018 0.000000 0.000000 0.000000 8.073542 0.953165 0.441429 -18.592183 -5.143933 -13.836168 33.954742 -6.966969 1.549446 -14.153066 -11.633347 9.049350 0.000000 0.000000 0.000000 -1.659525 -5.943223 0.113916 -2.828081 -4.359985 0.143889 4.309926 -4.471997 -0.362870 1.200509 -0.716437 -0.092899 0.000000 0.000000 0.000000 1.174005 2.455335 -1.573056 -1.349551 0.940269 -0.593001 0.000000 0.000000 0.000000 -0.994172 1.674998 -1.566287 -0.292850 -4.944736 -9.295701 6.998063 6.049575 -61.950915 3.786268 -22.600778 -7.202666 0.000000 0.000000 0.000000 -0.731600 1.958151 -1.787288 -0.739789 10.426457 2.086696 4.154382 0.932116 59.740776 2.627483 31.510446 9.439424 0.000000 0.000000 0.000000 
-0.050608 94.282784 5.354992 0.000000 0.000000 0.000000 9.218459 2.088275 -7.041210 -29.169081 14.078869 9.697429 30.101863 1.348645 1.738982 -17.317272 0.675303 -1.806460 0.000000 0.000000 0.000000 7.485934 0.304727 0.442974 -19.479778 -5.186454 -13.915921 33.695324 -7.018148 1.554321 -14.303277 -11.705396 8.993714 0.000000 0.000000 0.000000 -1.005992 -4.194115 0.514654 -4.921475 -3.020865 0.944911 3.934556 -4.499354 -0.248820 1.366327 -1.510110 -0.002479 0.000000 0.000000 0.000000 1.258352 2.464566 -1.473416 -1.490362 0.899827 -0.597007 0.000000 0.000000 0.000000 -0.969815 1.448769 -1.469427 -0.275681 -7.024357 -8.706369 8.384234 3.359026 -61.641426 4.320995 -26.108591 -7.254691 0.000000 0.000000 0.000000 -0.728326 1.744262 -1.878920 -0.600102 8.274369 2.246639 5.610781 -0.734845 60.711263 2.730494 28.652005 9.966483 0.000000 0.000000 0.000000 
0.533085 93.643112 5.179358 0.000000 0.000000 0.000000 8.920079 3.522175 -7.168007 -29.751375 14.369306 9.828484 30.448741 1.023334 1.731678 -17.216025 0.390869 -2.052900 0.000000 0.000000 0.000000 7.411932 0.927768 0.392726 -19.698248 -5.032624 -13.938924 34.066149 -6.817639 1.626462 -14.118595 -11.470575 9.204286 0.000000 0.000000 0.000000 -0.073703 -5.391261 0.370421 -3.316566 -1.436775 0.683347 5.280657 -4.542235 0.171838 1.194310 -1.410398 -0.179663 0.000000 0.000000 0.000000 1.214030 2.723853 -1.334245 -1.613067 0.910519 -0.401051 0.000000 0.000000 0.000000 -1.161577 1.161933 -1.515923 -0.620972 -7.477276 -8.471595 10.407441 4.103141 -63.230982 4.429459 -26.718563 -7.502748 0.000000 0.000000 0.000000 -0.241084 2.039696 -2.182265 -0.645600 8.879132 2.188115 7.853964 1.152720 59.517094 3.926399 30.757421 9.291760 0.000000 0.000000 0.000000 
0.325658 93.709976 4.323750 0.000000 0.000000 0.000000 8.714172 4.199711 -6.986181 -30.081164 14.419393 10.146516 30.849417 1.035642 1.927958 -17.074394 0.305934 -1.777510 0.000000 0.000000 0.000000 8.007409 1.241347 0.420441 -18.840788 -5.072188 -13.846933 35.222056 -6.541758 1.570792 -13.218143 -11.086550 9.263005 0.000000 0.000000 0.000000 0.487079 -4.443630 0.944630 -4.805783 -1.389481 0.846065 5.497491 -4.763217 -0.150374 1.346650 -1.446094 -0.073524 0.000000 0.000000 0.000000 1.147193 2.818590 -1.364618 -1.624353 0.888293 -0.473432 0.000000 0.000000 0.000000 -1.560901 1.316350 -1.608480 -0.764995 -7.848919 -8.686429 9.591160 3.884929 -62.601996 4.309691 -26.649716 -7.592424 0.000000 0.000000 0.000000 -0.320029 2.039364 -2.094374 -0.308174 9.028866 2.262450 6.529993 2.689292 59.777911 3.828721 30.797596 9.313042 0.000000 0.000000 0.000000 
0.342597 93.500191 4.358580 0.000000 0.000000 0.000000 8.163219 4.576577 -7.318002 -30.796087 14.501492 9.843832 30.505151 0.693611 1.830703 -17.253862 0.042569 -2.124351 0.000000 0.000000 0.000000 7.772199 0.786401 0.400758 -19.137963 -5.152813 -13.889982 35.124914 -6.456875 1.543235 -13.196370 -10.998905 9.259349 0.000000 0.000000 0.000000 0.969761 -3.731235 1.319360 -3.776554 -0.872107 1.101877 6.062245 -4.935876 0.036022 1.524905 -1.550074 0.047927 0.000000 0.000000 0.000000 1.106363 2.727632 -1.267347 -1.664822 0.862189 -0.505350 0.000000 0.000000 0.000000 -1.610578 1.210322 -1.516643 -0.633478 -7.647239 -9.026964 9.653747 4.470235 -62.156286 3.841555 -27.269083 -7.638044 0.000000 0.000000 0.000000 -0.130641 1.935227 -2.047905 -0.266598 8.203546 1.886338 6.760576 1.914648 61.356102 3.799607 30.856459 9.935252 0.000000 0.000000 0.000000 
